Coordinates
version=1
nRows=25
nColumns=28
inDegrees=yes

Units are S.I. units (second, meters, Newtons, ...)
Angles are in degrees.

endheader
time	pelvis_tilt	pelvis_list	pelvis_rotation	pelvis_tx	pelvis_ty	pelvis_tz	hip_flexion_r	hip_adduction_r	hip_rotation_r	knee_angle_r	ankle_angle_r	subtalar_angle_r	mtp_angle_r	hip_flexion_l	hip_adduction_l	hip_rotation_l	knee_angle_l	socket_flexion	socket_adduction	socket_rotation	socket_tx	socket_ty	socket_tz	foot_flex	lumbar_extension	lumbar_bending	lumbar_rotation
      0.30833333	      3.54078965	     -2.09955202	     -8.77256745	     -0.39244428	      1.02727033	      0.28653181	     17.90960568	     -0.78298966	     -4.39707567	    -66.39765678	      0.09662016	    -17.43021781	     16.92562832	      3.46771404	      0.58424942	      6.38261902	    -23.87468412	    -11.11546540	      0.00000000	      0.00000000	      0.00000000	      0.00000000	      0.00000000	      0.89422413	    -15.52550182	     -1.32403305	      8.14289362
      0.31250000	      3.56375665	     -2.07737733	     -8.70060039	     -0.38806736	      1.02745847	      0.28661787	     18.43747972	     -0.72419912	     -4.47873475	    -65.97663607	      0.15777355	    -17.41310260	     16.93885536	      3.15677435	      0.64096045	      6.38560644	    -23.84654976	    -11.14248638	      0.00000000	      0.00000000	      0.00000000	      0.00000000	      0.00000000	      0.94748055	    -15.64945135	     -1.37535252	      8.12028670
      0.31666667	      3.53082576	     -2.11705040	     -8.54824468	     -0.38291100	      1.02779867	      0.28679453	     18.82601041	     -0.57993882	     -4.60174609	    -65.31405127	      0.47611089	    -17.26290574	     17.03041875	      2.72489226	      0.60571078	      6.53817294	    -23.52541974	    -11.09682453	      0.00000000	      0.00000000	      0.00000000	      0.00000000	      0.00000000	      1.10439960	    -15.55020484	     -1.34765549	      7.98364625
      0.32083333	      3.54642451	     -2.35470971	     -8.24282300	     -0.37799958	      1.02822750	      0.28657077	     19.10368062	     -0.32343845	     -4.98172124	    -64.58199660	      1.15167731	    -16.67884352	     17.26904871	      2.31997716	      0.38910646	      6.84575890	    -23.37331199	    -11.09450996	      0.00000000	      0.00000000	      0.00000000	      0.00000000	      0.00000000	      1.18868871	    -15.64465033	     -0.99510175	      7.57348387
      0.32500000	      3.79362896	     -2.43361265	     -7.81088404	     -0.37331374	      1.02878111	      0.28599913	     19.18357551	     -0.39480391	     -5.49597118	    -63.88273499	      1.56741880	    -15.86982761	     17.46792009	      1.75998710	      0.39810330	      7.23996860	    -23.31344189	    -11.09569836	      0.00000000	      0.00000000	      0.00000000	      0.00000000	      0.00000000	      1.32463244	    -15.99778894	     -0.80804061	      6.93814401
      0.32916667	      3.79819202	     -2.40319462	     -7.74463280	     -0.36889032	      1.02885430	      0.28624449	     19.67348073	     -0.33379359	     -5.57371164	    -63.31708226	      1.65686608	    -15.87180301	     17.47600739	      1.46655061	      0.44324022	      7.24182917	    -23.28080335	    -11.11309679	      0.00000000	      0.00000000	      0.00000000	      0.00000000	      0.00000000	      1.39417488	    -16.10464067	     -0.89029593	      6.91628151
      0.33333333	      3.76444758	     -2.57754927	     -7.53042000	     -0.36370099	      1.02917749	      0.28637437	     19.93330538	     -0.06044351	     -5.79290466	    -62.42265560	      2.13739545	    -15.77441913	     17.54426852	      1.04397294	      0.25232781	      7.45181065	    -22.99401878	    -11.06818803	      0.00000000	      0.00000000	      0.00000000	      0.00000000	      0.00000000	      1.52094011	    -16.03050832	     -0.67539069	      6.75267806
      0.33750000	      3.77647390	     -2.58357033	     -7.38955069	     -0.35897120	      1.02932794	      0.28654465	     20.28077517	      0.02369583	     -5.92032014	    -61.65268443	      2.30819069	    -15.71510748	     17.55003643	      0.70322321	      0.26086129	      7.54124851	    -22.92199797	    -11.08408373	      0.00000000	      0.00000000	      0.00000000	      0.00000000	      0.00000000	      1.66619026	    -16.07132136	     -0.69124722	      6.65172667
      0.34166667	      3.78925984	     -2.71945745	     -7.15578037	     -0.35406876	      1.02957429	      0.28656738	     20.52696968	      0.19818075	     -6.19556057	    -60.76118114	      2.65128144	    -15.60581668	     17.55686197	      0.31006187	      0.12129738	      7.75885891	    -22.74647145	    -11.05119397	      0.00000000	      0.00000000	      0.00000000	      0.00000000	      0.00000000	      1.78930405	    -16.13262502	     -0.50477733	      6.44363789
      0.34583333	      3.81770148	     -2.72122737	     -7.01211339	     -0.34942927	      1.02966352	      0.28673564	     20.83533880	      0.26413114	     -6.34500064	    -59.92273156	      2.81832782	    -15.56480460	     17.54180936	     -0.01775251	      0.13687191	      7.84333767	    -22.72400155	    -11.06927757	      0.00000000	      0.00000000	      0.00000000	      0.00000000	      0.00000000	      1.91110287	    -16.19716397	     -0.52762002	      6.32851931
      0.35000000	      4.16313343	     -3.07394240	     -6.40908307	     -0.34455796	      1.03048482	      0.28604914	     20.54517774	      0.44267637	     -7.10044138	    -58.78185933	      3.21958484	    -15.22307748	     17.25225644	     -0.72313134	     -0.18310400	      8.42581102	    -22.62737209	    -11.06597244	      0.00000000	      0.00000000	      0.00000000	      0.00000000	      0.00000000	      2.05904994	    -16.70074543	      0.01502790	      5.55339874
      0.35416667	      4.15528381	     -3.00032897	     -6.32316374	     -0.33994016	      1.03041958	      0.28634627	     20.89934347	      0.44987339	     -7.16961104	    -57.92799526	      3.36304906	    -15.24766742	     17.22868966	     -1.01296136	     -0.10592007	      8.43361534	    -22.57848510	    -11.06912517	      0.00000000	      0.00000000	      0.00000000	      0.00000000	      0.00000000	      2.16918668	    -16.73361315	     -0.10526961	      5.51967176
      0.35833333	      4.13453542	     -2.97280873	     -6.21384927	     -0.33518705	      1.03038576	      0.28661201	     21.20736773	      0.49704439	     -7.28359309	    -56.99073934	      3.56511101	    -15.28982753	     17.19612984	     -1.32443759	     -0.08154248	      8.50005502	    -22.47726461	    -11.05970478	      0.00000000	      0.00000000	      0.00000000	      0.00000000	      0.00000000	      2.29141222	    -16.73340956	     -0.15942020	      5.46797352
      0.36250000	      4.32868307	     -3.30577751	     -5.75712446	     -0.33026906	      1.03093435	      0.28618933	     21.04900381	      0.76866513	     -7.84583408	    -55.74147401	      3.90474525	    -15.36157064	     16.75061581	     -1.89078031	     -0.41780924	      8.94354717	    -22.35393991	    -11.04334940	      0.00000000	      0.00000000	      0.00000000	      0.00000000	      0.00000000	      2.44480319	    -17.03169815	      0.33055812	      5.02369233
      0.36666667	      4.31801960	     -3.23417994	     -5.66104134	     -0.32557263	      1.03081933	      0.28648509	     21.34151717	      0.76797613	     -7.94186423	    -54.77600571	      4.07054451	    -15.41143930	     16.68155343	     -2.19403191	     -0.34842054	      8.98569393	    -22.28234584	    -11.04790772	      0.00000000	      0.00000000	      0.00000000	      0.00000000	      0.00000000	      2.55424652	    -17.04218394	      0.20821254	      4.97016808
      0.37083333	      4.39424100	     -3.43563747	     -5.34541662	     -0.32074236	      1.03104420	      0.28636820	     21.35383843	      0.96953633	     -8.34290834	    -53.54386213	      4.37320726	    -15.58433786	     16.27293164	     -2.60681171	     -0.56838655	      9.27163595	    -22.20434298	    -11.03752939	      0.00000000	      0.00000000	      0.00000000	      0.00000000	      0.00000000	      2.68434020	    -17.19465046	      0.49844981	      4.71241163
      0.37500000	      4.67174085	     -3.52308396	     -5.06919960	     -0.31615162	      1.03142242	      0.28631173	     21.20633419	      1.03571212	     -8.68645603	    -52.37253294	      4.62407794	    -15.69650076	     15.11986409	     -3.22035296	     -0.65067730	      9.48986817	    -22.10123865	    -11.02423389	      0.00000000	      0.00000000	      0.00000000	      0.00000000	      0.00000000	      2.79220364	    -17.58967411	      0.62286457	      4.34485563
      0.37916667	      4.61781739	     -3.40292319	     -5.00269682	     -0.31157700	      1.03113223	      0.28660989	     21.51472876	      0.99327824	     -8.74272362	    -51.32273692	      4.76940873	    -15.73050761	     15.08003555	     -3.44555251	     -0.52960597	      9.48430581	    -22.07489418	    -11.02521580	      0.00000000	      0.00000000	      0.00000000	      0.00000000	      0.00000000	      2.91799620	    -17.58105425	      0.46111571	      4.33988997
      0.38333333	      4.51910572	     -3.50976160	     -4.79678587	     -0.30667110	      1.03101263	      0.28670451	     21.70093955	      1.16648362	     -8.98239188	    -50.04298452	      5.07386889	    -15.91888744	     14.83795562	     -3.69298427	     -0.67335425	      9.71524231	    -21.94387345	    -10.99920897	      0.00000000	      0.00000000	      0.00000000	      0.00000000	      0.00000000	      3.02334987	    -17.49571751	      0.61666898	      4.29146459
      0.38750000	      4.53146301	     -3.59445688	     -4.54568771	     -0.30193277	      1.03096422	      0.28669598	     21.76900657	      1.27702446	     -9.27401706	    -48.74965503	      5.21061224	    -16.16623207	     14.36479523	     -4.00945160	     -0.78224920	      9.92778599	    -21.89682057	    -11.00643995	      0.00000000	      0.00000000	      0.00000000	      0.00000000	      0.00000000	      3.16359821	    -17.55053840	      0.75625237	      4.08970775
      0.39166667	      4.48987642	     -3.44860372	     -4.48963981	     -0.29739892	      1.03060752	      0.28698463	     22.02646668	      1.19614838	     -9.34940343	    -47.62767925	      5.33372214	    -16.21564610	     14.29346824	     -4.23438595	     -0.63056120	      9.91633090	    -21.89081708	    -11.00641419	      0.00000000	      0.00000000	      0.00000000	      0.00000000	      0.00000000	      3.28005099	    -17.55885944	      0.57004967	      4.05517837
      0.39583333	      4.66928959	     -3.62303587	     -4.21176234	     -0.29275412	      1.03082869	      0.28697182	     21.83987453	      1.42106049	     -9.63387924	    -46.20139665	      5.79304436	    -16.43913449	     12.12631412	     -4.76555294	     -0.83463830	     10.18362599	    -21.76145903	    -10.98253810	      0.00000000	      0.00000000	      0.00000000	      0.00000000	      0.00000000	      3.39554876	    -17.84533971	      0.80093043	      3.79434954
      0.40000000	      4.59574799	     -3.45497824	     -4.15224136	     -0.28817593	      1.03036273	      0.28721091	     22.09639124	      1.31022861	     -9.71482431	    -45.02744597	      5.93530073	    -16.47594755	     12.09492194	     -4.95225243	     -0.66218285	     10.14181973	    -21.75810831	    -10.98482461	      0.00000000	      0.00000000	      0.00000000	      0.00000000	      0.00000000	      3.50717340	    -17.81508065	      0.60842337	      3.78330919
      0.40416667	      4.43355418	     -3.51078458	     -3.95124741	     -0.28336906	      1.03003020	      0.28732822	     22.27053794	      1.45798048	     -9.87676695	    -43.59204055	      6.19924190	    -16.64762259	     11.92836783	     -5.11711039	     -0.76266504	     10.45456067	    -21.61744389	    -10.94763978	      0.00000000	      0.00000000	      0.00000000	      0.00000000	      0.00000000	      3.55471358	    -17.64164248	      0.70750255	      3.73105806
      0.40833333	      4.35661460	     -3.34769224	     -3.87686088	     -0.27871587	      1.02952496	      0.28760212	     22.47911631	      1.34658365	     -9.99585630	    -42.33441984	      6.30921451	    -16.70433233	     11.85509278	     -5.31197819	     -0.60253201	     10.42658950	    -21.61634638	    -10.96680137	      0.00000000	      0.00000000	      0.00000000	      0.00000000	      0.00000000	      3.71408523	    -17.59854506	      0.51498562	      3.68404080
